# xmcd
#
# Track frame offsets: 
#        150
#        11076
#        24658
#        40372
#        57896
#        75949
#        92723
#        118064
#        134564
#        147066
#        167453
#        184290
#        201584
#        220415
#        239078
#        262241
#        277721
#        296483
#
# Disc length: 4187 seconds
#
# Revision: 1
# Processed by: cddbd v1.5.2PL0 Copyright (c) Steve Scherf et al.
# Submitted via: ExactAudioCopy v0.99pb5
#
DISCID=12105912
DTITLE=Etta James - Heart and Soul A Retrospective [CD3)
DYEAR=2011
DGENRE=Blues
TTITLE0=Miss Pitiful
TTITLE1=Losers Weepers, Part One
TTITLE2=I Found A Love
TTITLE3=Never My Love
TTITLE4=Sail Away
TTITLE5=Down So Low
TTITLE6=All The Way Down
TTITLE7=God's Song (That's Why I Love Mankind)
TTITLE8=Feelin' Uneasy
TTITLE9=St. Louis Blues
TTITLE10=Let's Burn Down The Cornfield
TTITLE11=Lovin' Arms
TTITLE12=Only Women Bleed
TTITLE13=Take It To The Limit
TTITLE14=Please Send Me Someone To Love (Live)
TTITLE15=How Strong Is A Woman
TTITLE16=Damn Your Eyes
TTITLE17=Higher Ground (Previously Unreleased)
EXTD=YEAR: 2011
EXTT0=
EXTT1=
EXTT2=
EXTT3=
EXTT4=
EXTT5=
EXTT6=
EXTT7=
EXTT8=
EXTT9=
EXTT10=
EXTT11=
EXTT12=
EXTT13=
EXTT14=
EXTT15=
EXTT16=
EXTT17=
PLAYORDER=
